<?xml version="1.0" encoding="UTF-8" standalone="no"?>
<!-- Created with Inkscape (http://www.inkscape.org/) -->

<svg
   version="1.1"
   id="svg1"
   width="512"
   height="512"
   viewBox="0 0 512 512"
   sodipodi:docname="icon-bear3.svg"
   inkscape:version="1.4.2 (f4327f4, 2025-05-13)"
   xmlns:inkscape="http://www.inkscape.org/namespaces/inkscape"
   xmlns:sodipodi="http://sodipodi.sourceforge.net/DTD/sodipodi-0.dtd"
   xmlns="http://www.w3.org/2000/svg"
   xmlns:svg="http://www.w3.org/2000/svg">
  <defs
     id="defs1" />
  <sodipodi:namedview
     id="namedview1"
     pagecolor="#ffffff"
     bordercolor="#000000"
     borderopacity="0.25"
     inkscape:showpageshadow="2"
     inkscape:pageopacity="0.0"
     inkscape:pagecheckerboard="0"
     inkscape:deskcolor="#d1d1d1"
     inkscape:zoom="0.98242188"
     inkscape:cx="256"
     inkscape:cy="256"
     inkscape:window-width="1366"
     inkscape:window-height="705"
     inkscape:window-x="-8"
     inkscape:window-y="-8"
     inkscape:window-maximized="1"
     inkscape:current-layer="g1" />
  <g
     inkscape:groupmode="layer"
     inkscape:label="Image"
     id="g1">
    <path
       style="fill:#00bfff"
       d="m 145.46784,506.57502 c -22.92127,-5.92635 -43.08431,-21.87847 -52.941284,-41.88486 -6.85529,-13.91396 -8.85365,-23.28617 -8.23791,-38.63526 0.27662,-6.89536 0.81094,-13.27216 1.18739,-14.17067 0.55478,-1.32417 -0.60616,-2.02853 -6.1279,-3.71792 -19.8565,-6.07514 -36.2815,-23.62792 -42.24409,-45.14466 -2.51174,-9.06392 -2.75163,-22.90682 -0.54664,-31.54366 3.68228,-14.42328 14.83869,-30.58123 36.4782,-52.83178 25.5239,-26.24462 48.221344,-43.65788 66.690534,-51.16432 2.94564,-1.19719 5.6109,-2.43191 5.9228,-2.74382 0.31191,-0.31191 -1.24244,-3.63905 -3.45412,-7.39364 C 129.53236,195.84829 123.1935,168.79762 124.2955,140.9602 l 0.54458,-13.75644 -3.3321,-0.62511 c -5.27479,-0.98956 -16.48011,-7.03277 -22.373624,-12.06647 -10.2426,-8.74829 -17.33683,-19.949508 -20.63073,-32.574251 -2.35311,-9.018914 -1.58022,-26.92952 1.54392,-35.778062 3.19029,-9.035906 11.05713,-20.290416 18.32973,-26.222988 25.893784,-21.1226893 62.333574,-19.55928125 84.624844,3.630733 l 5.81526,6.049719 7.06106,-4.139381 C 220.29489,11.164384 255.1746,4.9624647 285.53579,9.5360877 300.3535,11.768234 312.96991,15.693096 325.95462,22.110049 l 11.58117,5.723338 5.99522,-5.923891 c 18.31053,-18.0926753 46.3528,-21.89350625 71.34673,-9.670291 8.641,4.225855 21.44468,16.776127 25.97891,25.464736 16.95395,32.48757 2.16965,73.064399 -31.6318,86.816319 -3.12899,1.27301 -5.66964,2.69325 -5.64591,3.1561 0.0237,0.46284 0.41509,5.68064 0.86969,11.59512 2.00132,26.03759 -5.41273,57.1755 -18.96716,79.65926 -2.99512,4.96824 -5.44568,9.26273 -5.44568,9.54331 0,0.28058 2.3625,1.6967 5.25,3.14693 14.32682,7.19555 31.6483,21.14413 53.8005,43.32427 32.34474,32.38553 41.89438,48.80746 41.93472,72.11254 0.0183,10.58214 -1.81115,18.00457 -7.13803,28.9601 -5.57853,11.47309 -17.07174,23.10892 -28.03339,28.38127 l -7.50228,3.60844 1.30749,6.75515 c 8.05983,41.64135 -19.21014,82.06352 -62.31766,92.3732 -7.31005,1.74829 -10.83462,2.01939 -20.80135,1.59999 -18.40489,-0.77448 -32.04562,-5.89845 -46.69646,-17.54093 l -7.46778,-5.93438 -7.3375,1.8234 c -20.74022,5.15404 -45.30492,5.09513 -65.85366,-0.15791 l -7.3554,-1.88032 -5.32014,4.73604 c -19.03468,16.94486 -45.89309,23.2942 -71.03701,16.79318 z m 32.73291,-17.00447 c 11.21731,-2.37747 24.75217,-10.1385 31.92186,-18.30433 5.75,-6.54888 10.71694,-15.15792 13.59055,-23.55605 2.40419,-7.02622 2.80329,-9.75798 2.80397,-19.19228 0.001,-18.08343 -5.17433,-30.33006 -18.41281,-43.56853 -8.38989,-8.38989 -15.08279,-12.6039 -25.56853,-16.09854 -5.7672,-1.92207 -9.02531,-2.32374 -18.5,-2.28076 -9.80372,0.0445 -12.58188,0.43967 -18.8346,2.67922 -10.41451,3.73017 -17.68521,8.28758 -25.1654,15.77415 -10.8303,10.83952 -16.80413,24.35967 -17.67143,39.99446 -1.04381,18.81695 4.59804,33.94498 17.52495,46.99129 15.38505,15.52715 37.08074,22.06114 58.31144,17.56137 z m 195.33504,-0.052 c 8.95517,-1.87371 21.54476,-8.11683 28.20066,-13.98459 7.22294,-6.36765 14.7211,-17.95634 17.66474,-27.30155 9.6653,-30.68453 -3.3568,-61.65044 -31.8654,-75.77436 -29.54863,-14.63917 -66.9764,-2.16158 -82.39108,27.46738 -16.30859,31.34716 -3.52923,69.37998 28.57136,85.03161 12.16152,5.92973 25.8087,7.49306 39.81972,4.56151 z m -89.75,-18.57332 c 3.4375,-0.62757 6.25,-1.49242 6.25,-1.92191 0,-0.42948 -1.3397,-3.6439 -2.97711,-7.14315 -4.78646,-10.22897 -7.02496,-20.69694 -7.00811,-32.77223 0.0239,-17.14489 4.04212,-30.39113 13.57451,-44.74929 13.96278,-21.03142 36.94475,-34.55694 61.18805,-36.01082 8.71407,-0.52259 12.9748,-0.15827 26.52702,2.26823 l 3.80435,0.68117 -0.6517,-7.88967 c -2.17353,-26.31342 -11.08552,-49.53592 -26.32702,-68.60192 -10.1047,-12.64024 -9.68675,-12.7407 -9.2809,2.23088 0.43421,16.01777 -1.02605,25.06751 -5.48215,33.97472 -3.78825,7.57228 -8.41891,12.2216 -15.31613,15.37785 -6.63231,3.03503 -19.56071,2.71445 -31.55081,-0.78236 -10.34986,-3.01844 -23.35499,-9.10274 -28.93416,-13.53651 -4.96533,-3.94594 -7.50705,-3.8473 -13.2194,0.51304 -8.89689,6.79114 -22.36961,12.2502 -36.99791,14.99129 -13.84391,2.59412 -23.75525,0.29309 -31.68493,-7.356 -8.41597,-8.11818 -11.96806,-19.97236 -12.01876,-40.10952 l -0.0338,-13.40887 -4.46854,4.90887 c -9.43997,10.37025 -20.06113,29.93147 -24.11263,44.40887 -2.4788,8.85761 -5.01566,24.58936 -5.02397,31.15507 l -0.006,4.65507 5.75,-1.62388 c 8.16973,-2.30723 29.53919,-2.24603 38.25,0.10955 24.48435,6.62107 45.52049,25.2457 55.09888,48.78254 8.48267,20.84433 7.6784,44.27375 -2.20637,64.27427 -1.59088,3.21895 -2.89251,5.96779 -2.89251,6.10855 0,0.14075 3.2625,0.76849 7.25,1.39497 3.9875,0.62648 8.375,1.33556 9.75,1.57572 4.14133,0.72336 26.06299,-0.28373 32.75,-1.50453 z M 95.930056,386.35534 c 4.06946,-6.72093 14.510884,-17.99639 21.238354,-22.9348 l 4.86738,-3.57299 0.006,-9.66483 c 0.0213,-34.97685 13.39091,-68.55464 38.0308,-95.51461 5.44532,-5.95804 5.54654,-7.00244 1.07126,-11.05252 -4.9818,-4.50847 -21.75961,2.23071 -40.33348,16.20084 -23.769034,17.87761 -53.243554,48.8015 -62.216874,65.27632 -5.63844,10.35205 -7.03135,23.94587 -3.59348,35.0698 4.3965,14.22581 13.20102,23.8528 27.01171,29.53503 8.56357,3.52337 9.96517,3.1868 13.91843,-3.34224 z M 443.0471,385.01063 c 5.56964,-3.57403 8.84074,-6.98769 12.92925,-13.49274 9.6553,-15.36214 9.23621,-34.59759 -1.10635,-50.77896 -16.55031,-25.89365 -64.01489,-68.71952 -83.9592,-75.75388 -3.51608,-1.24012 -3.71434,-1.17854 -6.5987,2.04962 l -2.9737,3.32815 7.61514,9.07753 c 21.79303,25.97812 32.12967,52.95008 33.76464,88.10394 l 0.60584,13.0264 4.86018,3.35076 c 6.27078,4.32328 15.70561,14.42966 19.98729,21.40996 l 3.3643,5.48473 3.48772,-1.44743 c 1.91825,-0.79608 5.52886,-2.75721 8.02359,-4.35808 z M 220.53579,308.34435 c 3.3,-0.82736 9.33037,-3.04135 13.40081,-4.91999 6.93855,-3.20234 7.30114,-3.52584 5.80499,-5.17906 -6.87485,-7.59662 -7.57586,-22.73276 -1.45948,-31.5129 1.06723,-1.53203 1.70214,-3.40643 1.41092,-4.16534 -0.29122,-0.75892 -3.57048,-3.08047 -7.28725,-5.159 -15.33784,-8.57741 -27.45394,-10.71475 -33.2227,-5.86065 -5.20231,4.37745 -6.64729,10.67503 -6.64729,28.97048 0,17.40608 0.83226,21.55953 5.19405,25.92132 4.73698,4.73698 9.81796,5.16143 22.80595,1.90514 z m 102.5,-0.15625 c 4.91572,-3.4885 7.22035,-10.16739 7.7568,-22.47936 0.7838,-17.98909 -2.18392,-31.0749 -7.96592,-35.12477 -6.04722,-4.23563 -25.40528,0.98712 -37.60533,10.14582 -3.09305,2.322 -3.20638,2.60761 -1.69656,4.27593 2.43906,2.69513 5.51101,11.53804 5.51101,15.86397 0,5.01202 -2.21603,12.23847 -4.91557,16.02963 l -2.15491,3.02629 2.28524,1.49707 c 1.25688,0.82339 5.43524,2.68929 9.28524,4.14644 14.58716,5.52097 24.20727,6.37504 29.5,2.61898 z m -57.14503,-18.59521 c 2.72286,-1.40805 5.14503,-5.25512 5.14503,-8.17171 0,-2.76634 -2.82348,-7.00183 -5.47206,-8.2086 -4.26092,-1.94141 -7.45576,-1.42071 -10.60486,1.72839 -7.80955,7.80954 1.09207,19.74029 10.93189,14.65192 z m 4.09953,-39.825 c 9.60981,-8.60121 26.56355,-16.67612 39.27647,-18.70702 11.26421,-1.79947 22.97217,1.7406 28.68726,8.67399 l 2.91582,3.53739 2.97794,-2.12048 c 4.78379,-3.40637 16.33375,-16.25726 21.40538,-23.81639 14.35423,-21.39462 20.86187,-42.96859 20.90915,-69.31749 0.0595,-33.15318 -11.9651,-62.656321 -34.99121,-85.85325 -27.67051,-27.875788 -68.1079,-41.111191 -105.75432,-34.614033 -51.25123,8.845125 -90.159,46.018144 -100.96913,96.467283 -2.4963,11.64983 -2.58035,36.32114 -0.16203,47.56076 5.20022,24.16905 15.56112,44.00098 31.79169,60.85295 l 7.69297,7.98749 3.25263,-2.73691 c 10.47807,-8.81671 24.07487,-9.40738 42.44417,-1.84384 9.57041,3.94061 21.28704,11.1075 25.49302,15.59371 3.93432,4.19645 9.1244,3.6218 15.03019,-1.66416 z m -12.57015,-9.16168 c -4.64135,-2.05397 -5.38435,-5.53658 -5.38435,-25.23754 0,-13.20875 -0.2984,-17.35311 -1.25,-17.36055 -2.67004,-0.0209 -11.73354,-4.98021 -15.79572,-8.64306 -15.85732,-14.29845 -12.0444,-39.7776 7.38397,-49.34216 8.33282,-4.10223 17.51785,-5.59635 25.62473,-4.16835 17.19253,3.0284 28.29154,14.05834 29.68436,29.49963 1.28073,14.19858 -7.92604,26.24896 -24.89734,32.58718 l -2.75,1.02703 v 18.85044 c 0,18.25965 -0.0705,18.91625 -2.25,20.95062 -3.05754,2.85395 -6.63475,3.48782 -10.36565,1.83676 z m 14.81639,-62.27355 c 4.06766,-2.37564 7.8005,-7.74476 7.79552,-11.21265 -0.0128,-8.92508 -12.59714,-15.83673 -23.89834,-13.12561 -7.29553,1.75017 -12.15282,6.3309 -12.79981,12.07103 -0.44306,3.93083 -0.132,4.99642 2.30346,7.8908 4.30072,5.11111 9.68502,7.22736 17.10257,6.72201 3.62433,-0.24692 7.57322,-1.22226 9.4966,-2.34558 z m -70.78944,-46.20572 c -5.30939,-3.23763 -7.41173,-6.78353 -7.40756,-12.49391 0.007,-9.41511 5.4778,-15.04371 14.62228,-15.04371 8.71937,0 14.54065,6.03061 14.54065,15.06354 0,10.7687 -12.65383,18.02415 -21.75537,12.47408 z m 107.59802,0.0356 c -3.73243,-2.00171 -8.00932,-8.85496 -8.00932,-12.83405 0,-6.46283 6.0886,-13.67379 12.57257,-14.89019 4.79853,-0.90021 11.79992,1.88959 14.59565,5.81584 3.14065,4.41063 3.56712,12.27001 0.89659,16.52289 -4.29895,6.84617 -12.98354,9.17825 -20.05549,5.38552 z M 131.61359,102.48795 c 6.64097,-19.301406 18.33795,-37.861859 33.49544,-53.149644 l 9.1521,-9.230771 -5.0973,-4.964931 C 148.11061,14.636131 112.50112,21.090509 99.294966,47.806645 c -3.6665,7.417367 -3.75867,7.877341 -3.73848,18.658048 0.017,9.072415 0.41892,12.038826 2.24288,16.5532 4.419944,10.939573 14.110124,20.707917 24.667304,24.866297 2.78802,1.09817 5.44704,1.90153 5.90894,1.78525 0.4619,-0.11629 1.919,-3.34796 3.23798,-7.18149 z m 274.61148,3.43439 C 422.887,97.511431 432.3013,78.905564 429.24072,60.435576 426.28567,42.6024 414.18324,28.894474 397.57569,24.569894 383.06847,20.792236 368.35418,24.224969 356.82997,34.075562 l -4.5841,3.91837 11.20571,11.261981 c 15.57666,15.654875 27.32286,34.185892 33.60256,53.011977 1.23836,3.7125 2.42866,6.75 2.64512,6.75 0.21646,0 3.15308,-1.393 6.52581,-3.09555 z"
       id="path2" />
    <path
       style="fill:#00bfff"
       id="path1" />
  </g>
</svg>
